<svg xmlns="http://www.w3.org/2000/svg" enable-background="new 0 0 66 66" viewBox="0 0 66 66" id="tribal-flower"><path d="M64.46,32.0878l-13.06-6.73l4.47-13.9897c0.2579-0.774-0.4858-1.5181-1.26-1.2603l-13.99,4.4702l-6.73-13.0601
				c-0.35-0.6602-1.44-0.6602-1.78,0l-6.73,13.0601l-14-4.4702c-0.7738-0.2576-1.5053,0.4942-1.25,1.2603l4.47,13.9897l-13.06,6.73
				c-0.7157,0.369-0.7221,1.4079,0,1.7803l13.06,6.73l-4.47,14c-0.2577,0.7514,0.4766,1.5075,1.25,1.25l14-4.4702l6.73,13.0601
				c0.3717,0.7217,1.411,0.7163,1.78,0l6.73-13.0601l13.99,4.4702c0.7677,0.3056,1.6838-0.583,1.2-1.4302L51.4,40.598l13.06-6.73
				C65.183,33.4953,65.1747,32.4563,64.46,32.0878z M46.7401,32.9779c0,7.5801-6.16,13.75-13.74,13.75
				c-7.58,0-13.75-6.1699-13.75-13.75s6.17-13.74,13.75-13.74C40.58,19.2379,46.7401,25.3978,46.7401,32.9779z"></path><path d="M32.9977,43.8559c-5.9971,0-10.876-4.8789-10.876-10.876c0-5.998,4.8789-10.877,10.876-10.877
			c5.998,0,10.877,4.8789,10.877,10.877C43.8747,38.977,38.9958,43.8559,32.9977,43.8559z M32.9977,24.1029
			c-4.8945,0-8.876,3.9824-8.876,8.877s3.9814,8.876,8.876,8.876s8.877-3.9814,8.877-8.876S37.8923,24.1029,32.9977,24.1029z"></path><circle cx="32.998" cy="32.979" r="5.064"></circle></svg>